<svg id="Capa_1" enable-background="new 0 0 510 510" height="512" viewBox="0 0 510 510" width="512" xmlns="http://www.w3.org/2000/svg"><g><path d="m397.5 146.017v-71.017h-30v-75c-4.123 0-171.871 0-195 0v60h30v-30h75v45h-30v71.017l-60 105v258.983h270v-258.983zm-169.152 93.983 42.857-75h36.295v75zm199.152 30v150h-210v-150zm-90-30v-75h36.295l42.857 75zm-30-210h30v45h-30zm-30 75h90v30h-90zm-60 375v-30h210v30z"/><path d="m277.5 360h30v30h30v-30h30v-30h-30v-30h-30v30h-30z"/><path d="m127.5 108.607c-2.378 4.238-45 60.087-45 86.393 0 24.814 20.187 45 45 45s45-20.186 45-45c0-23.216-32.618-68.451-45-86.393zm0 101.393c-8.271 0-15-6.729-15-14.982.122-4.585 6.361-17.655 15-32.212 8.635 14.551 14.872 27.615 15 32.206-.006 8.265-6.733 14.988-15 14.988z"/><path d="m97.5 273.607c-2.378 4.238-45 60.088-45 86.393 0 24.814 20.187 45 45 45s45-20.186 45-45c0-26.27-42.672-82.242-45-86.393zm0 101.393c-8.271 0-15-6.728-15-14.982.122-4.585 6.361-17.655 15-32.212 8.635 14.551 14.872 27.615 15 32.206-.006 8.265-6.733 14.988-15 14.988z"/></g></svg>