<svg height="512" viewBox="0 0 128 128" width="512" xmlns="http://www.w3.org/2000/svg"><g><g fill="#d8442b"><path d="m100.534 35.61c-1.14-3.64-4.631-2.546-5.772-6.186s2.352-4.733 1.212-8.373-4.631-2.543-5.77-6.181 2.351-4.732 1.212-8.37l-17.886 13.279 4.739 15.129z"/><path d="m18.559 61.288c-1.14-3.639 2.352-4.733 1.212-8.373s-4.632-2.546-5.771-6.185 2.351-4.73 1.212-8.369-4.632-2.544-5.771-6.183l22.265.7 4.739 15.129z"/></g><path d="m77.272 17.06 5.619 17.94a6 6 0 0 1 -3.932 7.519l-38.734 12.133a5.99 5.99 0 0 1 -7.519-3.932l-5.62-17.94a6 6 0 0 1 3.932-7.519l38.734-12.134a6.006 6.006 0 0 1 7.52 3.933z" fill="#fc6243"/><g fill="#fce277"><path d="m43.844 21.243 3.071 31.314-5.841 1.829-3.07-31.313z"/><path d="m56.373 17.318 3.071 31.314-5.849 1.833-3.062-31.317z"/><path d="m68.903 13.393 3.061 31.317-5.84 1.83-3.061-31.317z"/></g><path d="m50.939 101.23h44.498v6h-44.498z" fill="#1178ce" transform="matrix(.736 -.677 .677 .736 -51.24 77.063)"/><circle cx="101.596" cy="78.1" fill="#2586fd" r="19.904"/><rect fill="#1178ce" height="45.808" rx="3" transform="matrix(.736 -.677 .677 .736 -26.051 89.396)" width="6" x="98.596" y="55.196"/><g><path d="m59.946 55.286c1.6 1.731.287 2.949 1.889 4.679s2.92.514 4.523 2.246.29 2.952 1.895 4.685 2.92.515 4.525 2.248l-17.242 8.594-5.482-5.92z" fill="#515bbf"/><path d="m6.5 104.775c1.6 1.731 2.918.513 4.52 2.243s.289 2.951 1.892 4.683 2.921.515 4.526 2.248.289 2.951 1.894 4.685l9.892-16.534-5.482-5.92z" fill="#515bbf"/><g transform="matrix(.734 -.679 .679 .734 -48.529 50.085)"><ellipse cx="39.639" cy="86.96" fill="#6e76e3" rx="23.085" ry="15.352"/><ellipse cx="39.639" cy="86.96" fill="#515bbf" rx="23.085" ry="6.022"/></g></g></g></svg>